<?xml version="1.0" encoding="utf-8"?>
<!-- Generator: Adobe Illustrator 22.1.0, SVG Export Plug-In . SVG Version: 6.00 Build 0)  -->
<svg version="1.1" id="Layer_1" xmlns="http://www.w3.org/2000/svg" xmlns:xlink="http://www.w3.org/1999/xlink" x="0px" y="0px"
	 viewBox="0 0 449 448.3" style="enable-background:new 0 0 449 448.3;" xml:space="preserve">
<style type="text/css">
	.st0{opacity:0;fill:#FFFFFF;}
	.st1{fill:#24C3B5;}
</style>
<g>
	<path class="st0" d="M366.2,448.3H82.8c-45.5,0-82.5-36.9-82.5-82.5V82.5C0.3,36.9,37.3,0,82.8,0h283.4c45.5,0,82.5,36.9,82.5,82.5
		v283.4C448.7,411.4,411.7,448.3,366.2,448.3z"/>
	<g>
		<path class="st1" d="M1.5,369.8c-1-1-1.5-2.2-1.5-3.6V82.1c0-1.4,0.5-2.6,1.5-3.6c1-1,2.2-1.5,3.6-1.5h71.9
			c24.1,0,43.4,7.3,57.8,21.9c14.4,14.6,21.7,34.1,21.7,58.4V291c0,24.4-7.2,43.9-21.7,58.4c-14.4,14.6-33.7,21.9-57.8,21.9H5
			C3.6,371.3,2.5,370.8,1.5,369.8z M50.9,329.3l25.2-0.4c9.2,0,16.7-3.7,22.5-11.1c5.7-7.4,8.8-17.3,9-29.6V160.3
			c0-12.6-2.9-22.6-8.6-30.1c-5.7-7.4-13.5-11.1-23.3-11.1H50.9c-1.4,0-2.1,0.7-2.1,2.1v206C48.8,328.6,49.5,329.3,50.9,329.3z"/>
		<path class="st1" d="M199.9,369.8c-1-1-1.5-2.2-1.5-3.6V82.1c0-1.4,0.5-2.6,1.5-3.6c1-1,2.2-1.5,3.6-1.5h38.7
			c1.4,0,2.6,0.5,3.6,1.5c1,1,1.5,2.2,1.5,3.6v284.2c0,1.4-0.5,2.6-1.5,3.6c-1,1-2.2,1.5-3.6,1.5h-38.7
			C202.1,371.3,200.9,370.8,199.9,369.8z"/>
		<path class="st1" d="M294.1,369.8c-1-1-1.5-2.2-1.5-3.6V82.1c0-1.4,0.5-2.6,1.5-3.6c1-1,2.2-1.5,3.6-1.5h71.9
			c24.1,0,43.4,7.3,57.8,21.9c14.4,14.6,21.7,34.1,21.7,58.4V291c0,24.4-7.2,43.9-21.7,58.4c-14.4,14.6-33.7,21.9-57.8,21.9h-71.9
			C296.2,371.3,295.1,370.8,294.1,369.8z M343.5,329.3l25.2-0.4c9.2,0,16.7-3.7,22.5-11.1c5.7-7.4,8.8-17.3,9-29.6V160.3
			c0-12.6-2.9-22.6-8.6-30.1c-5.7-7.4-13.5-11.1-23.3-11.1h-24.8c-1.4,0-2.1,0.7-2.1,2.1v206C341.4,328.6,342.1,329.3,343.5,329.3z"
			/>
	</g>
</g>
</svg>
